<svg width="10" height="10" viewBox="0 0 10 10" fill="none" xmlns="http://www.w3.org/2000/svg">
<path d="M7.91671 3.33331H4.16671C3.70647 3.33331 3.33337 3.70641 3.33337 4.16665V7.91665C3.33337 8.37688 3.70647 8.74998 4.16671 8.74998H7.91671C8.37694 8.74998 8.75004 8.37688 8.75004 7.91665V4.16665C8.75004 3.70641 8.37694 3.33331 7.91671 3.33331Z" stroke="white" stroke-width="0.833333" stroke-linecap="round" stroke-linejoin="round"/>
<path d="M1.66669 5.83332H1.25002C1.02901 5.83332 0.817045 5.74553 0.660765 5.58925C0.504484 5.43296 0.416687 5.221 0.416687 4.99999V1.24999C0.416687 1.02898 0.504484 0.817014 0.660765 0.660734C0.817045 0.504454 1.02901 0.416656 1.25002 0.416656H5.00002C5.22103 0.416656 5.433 0.504454 5.58928 0.660734C5.74556 0.817014 5.83335 1.02898 5.83335 1.24999V1.66666" stroke="white" stroke-width="0.833333" stroke-linecap="round" stroke-linejoin="round"/>
</svg>
