<svg width="15" height="15" viewBox="0 0 15 15" fill="none" xmlns="http://www.w3.org/2000/svg">
<path fill-rule="evenodd" clip-rule="evenodd" d="M7.5 0C11.6423 0 15 3.37532 15 7.53975C15 10.8703 12.8535 13.6956 9.87525 14.6935C9.495 14.7678 9.36 14.5323 9.36 14.3316C9.36 14.083 9.369 13.2712 9.369 12.2622C9.369 11.5592 9.129 11.1004 8.85975 10.8665C10.53 10.6797 12.285 10.0421 12.285 7.14621C12.285 6.32259 11.994 5.65049 11.5125 5.12249C11.5905 4.93203 11.8477 4.16513 11.439 3.12678C11.439 3.12678 10.8105 2.92475 9.37875 3.89986C8.7795 3.73293 8.1375 3.64894 7.5 3.646C6.8625 3.64894 6.22125 3.73293 5.62275 3.89986C4.1895 2.92475 3.5595 3.12678 3.5595 3.12678C3.15225 4.16513 3.4095 4.93203 3.48675 5.12249C3.0075 5.65049 2.71425 6.32259 2.71425 7.14621C2.71425 10.0348 4.4655 10.6822 6.13125 10.8726C5.91675 11.0609 5.7225 11.393 5.655 11.8805C5.2275 12.0732 4.1415 12.4067 3.4725 11.2543C3.4725 11.2543 3.07575 10.5299 2.32275 10.4769C2.32275 10.4769 1.5915 10.4674 2.27175 10.9351C2.27175 10.9351 2.763 11.1668 3.10425 12.0382C3.10425 12.0382 3.5445 13.3839 5.631 12.928C5.63475 13.5582 5.6415 14.1521 5.6415 14.3316C5.6415 14.5308 5.5035 14.7641 5.12925 14.6942C2.14875 13.6978 0 10.871 0 7.53975C0 3.37532 3.3585 0 7.5 0Z" fill="white"/>
</svg>
