<svg width="15" height="15" viewBox="0 0 15 15" fill="none" xmlns="http://www.w3.org/2000/svg">
<path d="M3.75002 4.67963C4.31486 4.67963 4.77275 4.23067 4.77275 3.67684C4.77275 3.12302 4.31486 2.67406 3.75002 2.67406C3.18518 2.67406 2.72729 3.12302 2.72729 3.67684C2.72729 4.23067 3.18518 4.67963 3.75002 4.67963Z" fill="white"/>
<path d="M2.72729 6.01671C2.72729 5.6475 3.03256 5.34819 3.40911 5.34819H4.09093C4.46749 5.34819 4.77275 5.64749 4.77275 6.01671V11.3649C4.77275 11.7341 4.46749 12.0334 4.09093 12.0334H3.40911C3.03256 12.0334 2.72729 11.7341 2.72729 11.3649V6.01671Z" fill="white"/>
<path d="M6.81817 12.0334H7.49999C7.87656 12.0334 8.18181 11.7341 8.18181 11.3649V8.35655C8.18181 7.35376 10.2273 6.68524 10.2273 8.02228V11.3652C10.2273 11.7344 10.5325 12.0334 10.9091 12.0334H11.5909C11.9675 12.0334 12.2727 11.7341 12.2727 11.3649V7.35376C12.2727 6.01671 11.25 5.34819 9.88635 5.34819C8.52272 5.34819 8.18181 6.35098 8.18181 6.35098V6.01671C8.18181 5.64749 7.87656 5.34819 7.49999 5.34819H6.81817C6.4416 5.34819 6.13635 5.6475 6.13635 6.01671V11.3649C6.13635 11.7341 6.4416 12.0334 6.81817 12.0334Z" fill="white"/>
<path fill-rule="evenodd" clip-rule="evenodd" d="M12.9545 0C14.0843 0 15 0.897928 15 2.00557V12.7019C15 13.8096 14.0843 14.7075 12.9545 14.7075H2.04545C0.915784 14.7075 0 13.8096 0 12.7019V2.00557C0 0.897928 0.915784 0 2.04545 0H12.9545ZM12.9545 1.33705C13.3311 1.33705 13.6364 1.63636 13.6364 2.00557V12.7019C13.6364 13.0712 13.3311 13.3705 12.9545 13.3705H2.04545C1.6689 13.3705 1.36364 13.0712 1.36364 12.7019V2.00557C1.36364 1.63636 1.6689 1.33705 2.04545 1.33705H12.9545Z" fill="white"/>
</svg>
