<svg width="18" height="15" viewBox="0 0 18 15" fill="none" xmlns="http://www.w3.org/2000/svg">
<path d="M2.25 1.875C1.94062 1.875 1.6875 2.15625 1.6875 2.5V3.36328L7.75195 8.89453C8.47969 9.55859 9.52383 9.55859 10.2516 8.89453L16.3125 3.36328V2.5C16.3125 2.15625 16.0594 1.875 15.75 1.875H2.25ZM1.6875 5.78906V12.5C1.6875 12.8437 1.94062 13.125 2.25 13.125H15.75C16.0594 13.125 16.3125 12.8437 16.3125 12.5V5.78906L11.3203 10.3437C9.97031 11.5742 8.02617 11.5742 6.67969 10.3437L1.6875 5.78906ZM0 2.5C0 1.12109 1.00898 0 2.25 0H15.75C16.991 0 18 1.12109 18 2.5V12.5C18 13.8789 16.991 15 15.75 15H2.25C1.00898 15 0 13.8789 0 12.5V2.5Z" fill="white"/>
</svg>
